<mxfile host="app.diagrams.net" modified="2020-09-20T09:31:24.776Z" agent="5.0 (Windows NT 10.0; Win64; x64) AppleWebKit/537.36 (KHTML, like Gecko) Chrome/85.0.4183.102 Safari/537.36" etag="OzPEfmVuEPQXgHrmomqK" version="13.7.3" type="github">
  <diagram name="Page-1" id="822b0af5-4adb-64df-f703-e8dfc1f81529">
    <mxGraphModel dx="1422" dy="794" grid="1" gridSize="10" guides="1" tooltips="1" connect="1" arrows="1" fold="1" page="1" pageScale="1" pageWidth="1100" pageHeight="850" background="#ffffff" math="0" shadow="0">
      <root>
        <mxCell id="0" />
        <mxCell id="1" parent="0" />
        <mxCell id="TACM32WkCVHJDo2mR3jV-4" value="" style="rounded=0;whiteSpace=wrap;html=1;" vertex="1" parent="1">
          <mxGeometry x="340" y="80" width="300" height="157" as="geometry" />
        </mxCell>
        <mxCell id="TACM32WkCVHJDo2mR3jV-2" value="" style="verticalLabelPosition=bottom;aspect=fixed;html=1;verticalAlign=top;strokeColor=none;align=center;outlineConnect=0;shape=mxgraph.citrix.command_center;" vertex="1" parent="1">
          <mxGeometry x="380" y="120.5" width="75.5" height="96" as="geometry" />
        </mxCell>
        <mxCell id="TACM32WkCVHJDo2mR3jV-3" value="" style="verticalLabelPosition=bottom;aspect=fixed;html=1;verticalAlign=top;strokeColor=none;align=center;outlineConnect=0;shape=mxgraph.citrix.command_center;" vertex="1" parent="1">
          <mxGeometry x="530" y="120.5" width="75.5" height="96" as="geometry" />
        </mxCell>
        <mxCell id="TACM32WkCVHJDo2mR3jV-5" value="KaMaster" style="text;html=1;strokeColor=none;fillColor=none;align=center;verticalAlign=middle;whiteSpace=wrap;rounded=0;" vertex="1" parent="1">
          <mxGeometry x="340" y="80" width="100" height="20" as="geometry" />
        </mxCell>
        <mxCell id="TACM32WkCVHJDo2mR3jV-14" value="" style="rounded=0;whiteSpace=wrap;html=1;" vertex="1" parent="1">
          <mxGeometry x="90" y="330" width="240" height="157" as="geometry" />
        </mxCell>
        <mxCell id="TACM32WkCVHJDo2mR3jV-16" value="" style="verticalLabelPosition=bottom;aspect=fixed;html=1;verticalAlign=top;strokeColor=none;align=center;outlineConnect=0;shape=mxgraph.citrix.file_server;" vertex="1" parent="1">
          <mxGeometry x="99" y="370" width="71" height="97" as="geometry" />
        </mxCell>
        <mxCell id="TACM32WkCVHJDo2mR3jV-17" value="" style="verticalLabelPosition=bottom;aspect=fixed;html=1;verticalAlign=top;strokeColor=none;align=center;outlineConnect=0;shape=mxgraph.citrix.file_server;" vertex="1" parent="1">
          <mxGeometry x="250" y="370" width="71" height="97" as="geometry" />
        </mxCell>
        <mxCell id="TACM32WkCVHJDo2mR3jV-19" value="KaAgent Node1" style="text;html=1;strokeColor=none;fillColor=none;align=center;verticalAlign=middle;whiteSpace=wrap;rounded=0;" vertex="1" parent="1">
          <mxGeometry x="90" y="467" width="100" height="20" as="geometry" />
        </mxCell>
        <mxCell id="TACM32WkCVHJDo2mR3jV-20" value="KaAgent Node2" style="text;html=1;strokeColor=none;fillColor=none;align=center;verticalAlign=middle;whiteSpace=wrap;rounded=0;" vertex="1" parent="1">
          <mxGeometry x="230" y="467" width="100" height="20" as="geometry" />
        </mxCell>
        <mxCell id="TACM32WkCVHJDo2mR3jV-21" value="LINUX" style="text;html=1;strokeColor=none;fillColor=none;align=center;verticalAlign=middle;whiteSpace=wrap;rounded=0;" vertex="1" parent="1">
          <mxGeometry x="90" y="330" width="100" height="20" as="geometry" />
        </mxCell>
        <mxCell id="TACM32WkCVHJDo2mR3jV-31" value="" style="shape=doubleArrow;whiteSpace=wrap;html=1;" vertex="1" parent="1">
          <mxGeometry x="175.5" y="407.38" width="64.5" height="22.25" as="geometry" />
        </mxCell>
        <mxCell id="TACM32WkCVHJDo2mR3jV-32" value="" style="rounded=0;whiteSpace=wrap;html=1;" vertex="1" parent="1">
          <mxGeometry x="390" y="330" width="250" height="157" as="geometry" />
        </mxCell>
        <mxCell id="TACM32WkCVHJDo2mR3jV-33" value="" style="verticalLabelPosition=bottom;aspect=fixed;html=1;verticalAlign=top;strokeColor=none;align=center;outlineConnect=0;shape=mxgraph.citrix.file_server;" vertex="1" parent="1">
          <mxGeometry x="399.5" y="370" width="71" height="97" as="geometry" />
        </mxCell>
        <mxCell id="TACM32WkCVHJDo2mR3jV-34" value="" style="verticalLabelPosition=bottom;aspect=fixed;html=1;verticalAlign=top;strokeColor=none;align=center;outlineConnect=0;shape=mxgraph.citrix.file_server;" vertex="1" parent="1">
          <mxGeometry x="549" y="370" width="71" height="97" as="geometry" />
        </mxCell>
        <mxCell id="TACM32WkCVHJDo2mR3jV-36" value="KaAgent Node3" style="text;html=1;strokeColor=none;fillColor=none;align=center;verticalAlign=middle;whiteSpace=wrap;rounded=0;" vertex="1" parent="1">
          <mxGeometry x="390" y="467" width="100" height="20" as="geometry" />
        </mxCell>
        <mxCell id="TACM32WkCVHJDo2mR3jV-37" value="KaAgent Node4" style="text;html=1;strokeColor=none;fillColor=none;align=center;verticalAlign=middle;whiteSpace=wrap;rounded=0;" vertex="1" parent="1">
          <mxGeometry x="540" y="467" width="100" height="20" as="geometry" />
        </mxCell>
        <mxCell id="TACM32WkCVHJDo2mR3jV-39" value="WINDOWS" style="text;html=1;strokeColor=none;fillColor=none;align=center;verticalAlign=middle;whiteSpace=wrap;rounded=0;" vertex="1" parent="1">
          <mxGeometry x="380" y="330" width="100" height="20" as="geometry" />
        </mxCell>
        <mxCell id="TACM32WkCVHJDo2mR3jV-40" value="이중화" style="text;html=1;strokeColor=none;fillColor=none;align=center;verticalAlign=middle;whiteSpace=wrap;rounded=0;" vertex="1" parent="1">
          <mxGeometry x="467.75" y="120.5" width="40" height="20" as="geometry" />
        </mxCell>
        <mxCell id="TACM32WkCVHJDo2mR3jV-44" value="파일전송" style="text;html=1;strokeColor=none;fillColor=none;align=center;verticalAlign=middle;whiteSpace=wrap;rounded=0;" vertex="1" parent="1">
          <mxGeometry x="170" y="387.37" width="80" height="20" as="geometry" />
        </mxCell>
        <mxCell id="TACM32WkCVHJDo2mR3jV-46" value="" style="shape=doubleArrow;whiteSpace=wrap;html=1;" vertex="1" parent="1">
          <mxGeometry x="330" y="407.38" width="64.5" height="22.25" as="geometry" />
        </mxCell>
        <mxCell id="TACM32WkCVHJDo2mR3jV-47" value="" style="shape=doubleArrow;whiteSpace=wrap;html=1;" vertex="1" parent="1">
          <mxGeometry x="476" y="407.38" width="64.5" height="22.25" as="geometry" />
        </mxCell>
        <mxCell id="TACM32WkCVHJDo2mR3jV-50" value="파일전송" style="text;html=1;strokeColor=none;fillColor=none;align=center;verticalAlign=middle;whiteSpace=wrap;rounded=0;" vertex="1" parent="1">
          <mxGeometry x="320" y="387.37" width="80" height="20" as="geometry" />
        </mxCell>
        <mxCell id="TACM32WkCVHJDo2mR3jV-51" value="파일전송" style="text;html=1;strokeColor=none;fillColor=none;align=center;verticalAlign=middle;whiteSpace=wrap;rounded=0;" vertex="1" parent="1">
          <mxGeometry x="470" y="387.37" width="80" height="20" as="geometry" />
        </mxCell>
        <mxCell id="TACM32WkCVHJDo2mR3jV-53" value="" style="endArrow=none;html=1;fillColor=#d5e8d4;strokeColor=#82b366;" edge="1" parent="1" source="TACM32WkCVHJDo2mR3jV-16" target="TACM32WkCVHJDo2mR3jV-2">
          <mxGeometry width="50" height="50" relative="1" as="geometry">
            <mxPoint x="480" y="370" as="sourcePoint" />
            <mxPoint x="530" y="320" as="targetPoint" />
          </mxGeometry>
        </mxCell>
        <mxCell id="TACM32WkCVHJDo2mR3jV-54" value="" style="endArrow=none;html=1;fillColor=#d5e8d4;strokeColor=#82b366;" edge="1" parent="1" source="TACM32WkCVHJDo2mR3jV-17" target="TACM32WkCVHJDo2mR3jV-2">
          <mxGeometry width="50" height="50" relative="1" as="geometry">
            <mxPoint x="480" y="370" as="sourcePoint" />
            <mxPoint x="390" y="220" as="targetPoint" />
          </mxGeometry>
        </mxCell>
        <mxCell id="TACM32WkCVHJDo2mR3jV-55" value="" style="shape=doubleArrow;whiteSpace=wrap;html=1;" vertex="1" parent="1">
          <mxGeometry x="458" y="157.38" width="64.5" height="22.25" as="geometry" />
        </mxCell>
        <mxCell id="TACM32WkCVHJDo2mR3jV-56" value="" style="endArrow=none;html=1;fillColor=#d5e8d4;strokeColor=#82b366;" edge="1" parent="1" source="TACM32WkCVHJDo2mR3jV-33" target="TACM32WkCVHJDo2mR3jV-2">
          <mxGeometry width="50" height="50" relative="1" as="geometry">
            <mxPoint x="480" y="370" as="sourcePoint" />
            <mxPoint x="530" y="320" as="targetPoint" />
          </mxGeometry>
        </mxCell>
        <mxCell id="TACM32WkCVHJDo2mR3jV-57" value="" style="endArrow=none;html=1;fillColor=#d5e8d4;strokeColor=#82b366;" edge="1" parent="1" source="TACM32WkCVHJDo2mR3jV-34" target="TACM32WkCVHJDo2mR3jV-2">
          <mxGeometry width="50" height="50" relative="1" as="geometry">
            <mxPoint x="480" y="370" as="sourcePoint" />
            <mxPoint x="530" y="320" as="targetPoint" />
          </mxGeometry>
        </mxCell>
        <mxCell id="TACM32WkCVHJDo2mR3jV-58" value="Active" style="text;html=1;strokeColor=none;fillColor=none;align=center;verticalAlign=middle;whiteSpace=wrap;rounded=0;" vertex="1" parent="1">
          <mxGeometry x="397.75" y="100.5" width="40" height="20" as="geometry" />
        </mxCell>
        <mxCell id="TACM32WkCVHJDo2mR3jV-59" value="Active" style="text;html=1;strokeColor=none;fillColor=none;align=center;verticalAlign=middle;whiteSpace=wrap;rounded=0;" vertex="1" parent="1">
          <mxGeometry x="539.5" y="100.5" width="40" height="20" as="geometry" />
        </mxCell>
        <mxCell id="TACM32WkCVHJDo2mR3jV-60" value="&lt;h1&gt;Master 이중화&lt;/h1&gt;&lt;p&gt;- Active - Active 로 구성&lt;/p&gt;&lt;p&gt;- Load Balancer 에서 Master 의 Heath check를 수행&lt;/p&gt;&lt;p&gt;- 비정상 서버로는 트래픽 차단&lt;/p&gt;&lt;p&gt;- 장애 서버 복구 후 A-A 상태 유지&lt;/p&gt;" style="text;html=1;strokeColor=none;fillColor=none;spacing=5;spacingTop=-20;whiteSpace=wrap;overflow=hidden;rounded=0;" vertex="1" parent="1">
          <mxGeometry x="650" y="80" width="290" height="160" as="geometry" />
        </mxCell>
        <mxCell id="TACM32WkCVHJDo2mR3jV-61" value="" style="verticalLabelPosition=bottom;aspect=fixed;html=1;verticalAlign=top;strokeColor=none;align=center;outlineConnect=0;shape=mxgraph.citrix.users;" vertex="1" parent="1">
          <mxGeometry x="220" y="131" width="64.5" height="55" as="geometry" />
        </mxCell>
        <mxCell id="TACM32WkCVHJDo2mR3jV-62" value="" style="endArrow=none;html=1;entryX=0;entryY=0.5;entryDx=0;entryDy=0;" edge="1" parent="1" source="TACM32WkCVHJDo2mR3jV-63" target="TACM32WkCVHJDo2mR3jV-4">
          <mxGeometry width="50" height="50" relative="1" as="geometry">
            <mxPoint x="480" y="370" as="sourcePoint" />
            <mxPoint x="530" y="320" as="targetPoint" />
          </mxGeometry>
        </mxCell>
        <mxCell id="TACM32WkCVHJDo2mR3jV-63" value="" style="aspect=fixed;html=1;points=[];align=center;image;fontSize=12;image=img/lib/mscae/Load_Balancer_feature.svg;" vertex="1" parent="1">
          <mxGeometry x="315.5" y="133.5" width="50" height="50" as="geometry" />
        </mxCell>
        <mxCell id="TACM32WkCVHJDo2mR3jV-64" value="" style="endArrow=none;html=1;entryX=0;entryY=0.5;entryDx=0;entryDy=0;" edge="1" parent="1" source="TACM32WkCVHJDo2mR3jV-61" target="TACM32WkCVHJDo2mR3jV-63">
          <mxGeometry width="50" height="50" relative="1" as="geometry">
            <mxPoint x="284.5" y="158.5" as="sourcePoint" />
            <mxPoint x="340" y="158.5" as="targetPoint" />
          </mxGeometry>
        </mxCell>
        <mxCell id="TACM32WkCVHJDo2mR3jV-65" value="" style="endArrow=none;html=1;exitX=0.859;exitY=0.103;exitDx=0;exitDy=0;exitPerimeter=0;fillColor=#dae8fc;strokeColor=#6c8ebf;" edge="1" parent="1" source="TACM32WkCVHJDo2mR3jV-16" target="TACM32WkCVHJDo2mR3jV-3">
          <mxGeometry width="50" height="50" relative="1" as="geometry">
            <mxPoint x="480" y="370" as="sourcePoint" />
            <mxPoint x="530" y="320" as="targetPoint" />
          </mxGeometry>
        </mxCell>
        <mxCell id="TACM32WkCVHJDo2mR3jV-66" value="" style="endArrow=none;html=1;fillColor=#dae8fc;strokeColor=#6c8ebf;" edge="1" parent="1" source="TACM32WkCVHJDo2mR3jV-17" target="TACM32WkCVHJDo2mR3jV-3">
          <mxGeometry width="50" height="50" relative="1" as="geometry">
            <mxPoint x="480" y="370" as="sourcePoint" />
            <mxPoint x="530" y="320" as="targetPoint" />
          </mxGeometry>
        </mxCell>
        <mxCell id="TACM32WkCVHJDo2mR3jV-67" value="" style="endArrow=none;html=1;fillColor=#dae8fc;strokeColor=#6c8ebf;" edge="1" parent="1" source="TACM32WkCVHJDo2mR3jV-33" target="TACM32WkCVHJDo2mR3jV-3">
          <mxGeometry width="50" height="50" relative="1" as="geometry">
            <mxPoint x="480" y="370" as="sourcePoint" />
            <mxPoint x="530" y="320" as="targetPoint" />
          </mxGeometry>
        </mxCell>
        <mxCell id="TACM32WkCVHJDo2mR3jV-68" value="" style="endArrow=none;html=1;fillColor=#dae8fc;strokeColor=#6c8ebf;" edge="1" parent="1" source="TACM32WkCVHJDo2mR3jV-34" target="TACM32WkCVHJDo2mR3jV-3">
          <mxGeometry width="50" height="50" relative="1" as="geometry">
            <mxPoint x="480" y="370" as="sourcePoint" />
            <mxPoint x="530" y="320" as="targetPoint" />
          </mxGeometry>
        </mxCell>
        <mxCell id="TACM32WkCVHJDo2mR3jV-69" value="&lt;h1&gt;Agent&amp;nbsp;동작&lt;/h1&gt;&lt;p&gt;- 파일은 수신자는 Sever 전송자는 Client 로 동작&lt;/p&gt;&lt;p&gt;&lt;span&gt;- Mater 서버를 거치지 않고 직접 전송하여 빠른 동작&lt;/span&gt;&lt;br&gt;&lt;/p&gt;&lt;p&gt;&lt;span&gt;- OS 스케줄(Crontab), Watchdog 등을 활용하여 Agent 장애시 자동 재기동&lt;/span&gt;&lt;/p&gt;&lt;p&gt;&lt;span&gt;- 연결중인 Master timeout 발생시 이중화 서버 자동연결 시도&lt;/span&gt;&lt;/p&gt;" style="text;html=1;strokeColor=none;fillColor=none;spacing=5;spacingTop=-20;whiteSpace=wrap;overflow=hidden;rounded=0;" vertex="1" parent="1">
          <mxGeometry x="660" y="330" width="350" height="160" as="geometry" />
        </mxCell>
        <mxCell id="TACM32WkCVHJDo2mR3jV-70" value="&lt;h1&gt;고성능, 고가용성 구성&lt;/h1&gt;" style="text;html=1;strokeColor=none;fillColor=none;spacing=5;spacingTop=-20;whiteSpace=wrap;overflow=hidden;rounded=0;" vertex="1" parent="1">
          <mxGeometry x="80" y="20.5" width="270" height="120" as="geometry" />
        </mxCell>
      </root>
    </mxGraphModel>
  </diagram>
</mxfile>
